<svg xmlns="http://www.w3.org/2000/svg" viewBox="0 0 100 300">
<defs>
  <linearGradient id="body" x1="0" x2="1"><stop offset="0" stop-color="#87482b"/><stop offset="0.18" stop-color="#c77b4d"/><stop offset="0.52" stop-color="#b66840"/><stop offset="0.82" stop-color="#995633"/><stop offset="1" stop-color="#673522"/></linearGradient>
  <linearGradient id="rim" x1="0" x2="1"><stop offset="0" stop-color="#6b3e22"/><stop offset="0.18" stop-color="#e7b878"/><stop offset="0.5" stop-color="#c47849"/><stop offset="0.82" stop-color="#e1ac71"/><stop offset="1" stop-color="#6d4024"/></linearGradient>
  <linearGradient id="soil" x1="0" x2="0" y2="1"><stop offset="0" stop-color="#405736"/><stop offset="1" stop-color="#253523"/></linearGradient>
  <filter id="shadow" x="-20%" y="-20%" width="140%" height="160%"><feDropShadow dx="0" dy="5" stdDeviation="4" flood-color="#173425" flood-opacity="0.55"/></filter>
</defs>
<g filter="url(#shadow)">
  <path d="M18 24 Q18 14 30 14 H70 Q82 14 82 24 L78 278 Q78 288 68 288 H32 Q22 288 22 278 Z" fill="url(#body)" stroke="#efbc80" stroke-width="3"/>
  <path d="M12 12 H88 Q91 12 91 15 V28 Q91 31 88 31 H12 Q9 31 9 28 V15 Q9 12 12 12 Z" fill="url(#rim)" stroke="#f4cb93" stroke-width="3"/>
  <path d="M20 18 H80 Q83 18 83 20 V25 Q83 28 80 28 H20 Q17 28 17 25 V20 Q17 18 20 18 Z" fill="url(#soil)" stroke="#6d4528" stroke-width="2"/>
  <path d="M26 35 C32 46 68 46 74 35" fill="none" stroke="#e5af6d" stroke-width="2.5" opacity="0.75"/>
  <path d="M32 45 V270" stroke="#e6ae6c" stroke-width="2" opacity="0.42"/>
  <path d="M50 40 V274" stroke="#efbb7e" stroke-width="2.4" opacity="0.6"/>
  <path d="M68 45 V270" stroke="#e6ae6c" stroke-width="2" opacity="0.42"/>
  <path d="M27 284 h12 M61 284 h12" stroke="#5d331f" stroke-width="7" stroke-linecap="round"/>
  <g fill="#6ea659" stroke="#35552e" stroke-width="1.4">
    <ellipse cx="34" cy="12" rx="8" ry="18" transform="rotate(-24 34 12)"/>
    <ellipse cx="50" cy="9" rx="8" ry="19" transform="rotate(2 50 9)"/>
    <ellipse cx="66" cy="12" rx="8" ry="18" transform="rotate(24 66 12)"/>
    <ellipse cx="42" cy="15" rx="7" ry="15" transform="rotate(-6 42 15)"/>
    <ellipse cx="58" cy="15" rx="7" ry="15" transform="rotate(6 58 15)"/>
  </g>
  <g fill="#c2dc93" opacity="0.95"><circle cx="38" cy="8" r="3.2"/><circle cx="50" cy="6" r="3.4"/><circle cx="62" cy="8" r="3.2"/></g>
</g>
</svg>
