<svg xmlns="http://www.w3.org/2000/svg" viewBox="0 0 800 800"><defs>
 <linearGradient id="navy" x1="0" y1="0" x2="0" y2="1"><stop stop-color="#123b70"/><stop offset=".48" stop-color="#062954"/><stop offset="1" stop-color="#03172f"/></linearGradient>
 <linearGradient id="gold" x1="0" x2="1"><stop stop-color="#6f3b0b"/><stop offset=".18" stop-color="#d58b28"/><stop offset=".42" stop-color="#fff0a5"/><stop offset=".62" stop-color="#e2aa45"/><stop offset="1" stop-color="#6a3508"/></linearGradient>
 <linearGradient id="gold2" x1="0" y1="0" x2="0" y2="1"><stop stop-color="#fff5bd"/><stop offset=".5" stop-color="#c77a1c"/><stop offset="1" stop-color="#6b3c0e"/></linearGradient>
 <radialGradient id="blueGlow"><stop stop-color="#fffde1"/><stop offset=".16" stop-color="#87edff"/><stop offset=".5" stop-color="#376dff"/><stop offset="1" stop-color="#0a1b69"/></radialGradient>
 <filter id="shadow" x="-30%" y="-30%" width="160%" height="180%"><feDropShadow dx="0" dy="3" stdDeviation="3" flood-color="#000" flood-opacity=".75"/></filter>
 <filter id="glow" x="-80%" y="-80%" width="260%" height="260%"><feGaussianBlur stdDeviation="5"/></filter>
</defs>
 <rect x="18" y="18" width="764" height="764" rx="54" fill="none" stroke="#261408" stroke-width="32"/>
 <rect x="26" y="26" width="748" height="748" rx="48" fill="none" stroke="url(#gold)" stroke-width="18"/>
 <rect x="47" y="47" width="706" height="706" rx="34" fill="none" stroke="#fff0a0" stroke-opacity=".76" stroke-width="4"/>
 <rect x="57" y="57" width="686" height="686" rx="28" fill="none" stroke="#8c571b" stroke-width="5"/>
 <g fill="#f0c662" stroke="#6b390a" stroke-width="3">
  <path d="M24 115L24 58Q24 24 58 24h57L92 46 67 67 46 92Z"/><path d="M776 115V58Q776 24 742 24h-57l23 22 25 21 21 25Z"/>
  <path d="M24 685v57q0 34 34 34h57l-23-22-25-21-21-25Z"/><path d="M776 685v57q0 34-34 34h-57l23-22 25-21 21-25Z"/>
 </g>
 <g fill="none" stroke="#f3cf70" stroke-width="5">
  <circle cx="72" cy="72" r="24"/><circle cx="728" cy="72" r="24"/><circle cx="72" cy="728" r="24"/><circle cx="728" cy="728" r="24"/>
  <path d="M72 38v68M38 72h68M728 38v68M694 72h68M72 694v68M38 728h68M728 694v68M694 728h68"/>
 </g>
 <g fill="#ffe08a">
  <path d="M400 25l7 18 18 7-18 7-7 18-7-18-18-7 18-7Z"/><path d="M400 725l7 18 18 7-18 7-7 18-7-18-18-7 18-7Z"/>
  <path d="M25 400l18 7 7 18 7-18 18-7-18-7-7-18-7 18Z"/><path d="M725 400l18 7 7 18 7-18 18-7-18-7-7-18-7 18Z"/>
 </g>
 <g stroke="#d99f3a" fill="none" stroke-width="3" opacity=".8"><path d="M140 40h190M470 40h190M140 760h190M470 760h190M40 140v190M40 470v190M760 140v190M760 470v190"/></g>
 </svg>