<svg xmlns="http://www.w3.org/2000/svg" data-shape="L3-BL" data-role="celestial-codex" viewBox="0 0 200 200"><defs><linearGradient id="gold"><stop stop-color="#5a300b"/><stop offset=".3" stop-color="#ffe39a"/><stop offset=".62" stop-color="#b36a1b"/><stop offset="1" stop-color="#f0c467"/></linearGradient><linearGradient id="leather" x2="1" y2="1"><stop stop-color="#15366d"/><stop offset=".55" stop-color="#15366d"/><stop offset="1" stop-color="#101522"/></linearGradient><pattern id="grain" width="14" height="14" patternUnits="userSpaceOnUse"><path d="M0 4q6-5 14 0M0 11q7-4 14 0" fill="none" stroke="#ffe7a0" stroke-opacity=".08"/><circle cx="4" cy="7" r=".7" fill="#000" opacity=".25"/></pattern><clipPath id="sil"><path d="M18 5H89Q102 5 102 18V92Q102 102 112 102H183Q195 102 195 114V182Q195 195 182 195H18Q5 195 5 182V18Q5 5 18 5Z"/></clipPath><filter id="sh" x="-20%" y="-20%" width="150%" height="160%"><feDropShadow dy="5" stdDeviation="4" flood-opacity=".7"/></filter></defs><path d="M18 5H89Q102 5 102 18V92Q102 102 112 102H183Q195 102 195 114V182Q195 195 182 195H18Q5 195 5 182V18Q5 5 18 5Z" fill="url(#leather)" stroke="url(#gold)" stroke-width="7" stroke-linejoin="round" filter="url(#sh)"/><g clip-path="url(#sil)"><rect x="8" y="8" width="184" height="184" fill="url(#grain)"/><path d="M18 18H182M18 182H182M18 18V182M182 18V182" fill="none" stroke="#e6b64d" stroke-width="5" opacity=".6"/><path d="M14 188Q100 198 186 188" fill="none" stroke="#f3d08a" stroke-width="6" opacity=".65"/><g fill="#c78a2c" stroke="#ffe8a3" stroke-opacity=".5"><path d="M7 7h28L20 21 7 34Z"/><path d="M193 7h-28l15 14 13 13Z"/><path d="M7 193h28l-15-14-13-13Z"/><path d="M193 193h-28l15-14 13-13Z"/></g><g transform="translate(52 148)" fill="none" stroke="#ffe07c" stroke-width="4" stroke-linejoin="round"><circle r="28"/><ellipse rx="38" ry="13" transform="rotate(-25)"/><path d="M0-38l8 27 27 8-27 8-8 27-8-27-27-8 27-8Z"/><circle r="5" fill="#fff0a6"/></g><g fill="none" stroke="#f5d67c" stroke-opacity=".3"><path d="M28 44Q100 18 172 44M28 156Q100 182 172 156"/></g></g><path d="M18 5H89Q102 5 102 18V92Q102 102 112 102H183Q195 102 195 114V182Q195 195 182 195H18Q5 195 5 182V18Q5 5 18 5Z" fill="none" stroke="#fff0b0" stroke-opacity=".25" stroke-width="2"/><g class="hardware"><g transform="translate(0 48)"><rect x="7" y="-7" width="186" height="14" rx="3"/><circle cx="100" cy="0" r="3"/></g><g transform="translate(0 152)"><rect x="7" y="-7" width="186" height="14" rx="3"/><circle cx="100" cy="0" r="3"/></g></g><g class="wear" fill="none"><path d="M18 16q36 8 64 0M124 183q24-7 50 0"/><path d="M14 84q5 18 0 36M186 62q-5 20 0 40"/></g><style>.hardware{fill:#a9681b;stroke:#ffe09a;stroke-width:1.2;filter:drop-shadow(0 2px 1px #321600)}.hardware circle{fill:#4a270b;stroke:#f5cb72}.wear{stroke:#f5d98b;stroke-opacity:.2;stroke-width:1.1;stroke-linecap:round}</style></svg>