<svg xmlns="http://www.w3.org/2000/svg" data-role="fixed-wall" viewBox="0 0 100 100"><defs>
 <linearGradient id="navy" x1="0" y1="0" x2="0" y2="1"><stop stop-color="#123b70"/><stop offset=".48" stop-color="#062954"/><stop offset="1" stop-color="#03172f"/></linearGradient>
 <linearGradient id="gold" x1="0" x2="1"><stop stop-color="#6f3b0b"/><stop offset=".18" stop-color="#d58b28"/><stop offset=".42" stop-color="#fff0a5"/><stop offset=".62" stop-color="#e2aa45"/><stop offset="1" stop-color="#6a3508"/></linearGradient>
 <linearGradient id="gold2" x1="0" y1="0" x2="0" y2="1"><stop stop-color="#fff5bd"/><stop offset=".5" stop-color="#c77a1c"/><stop offset="1" stop-color="#6b3c0e"/></linearGradient>
 <radialGradient id="blueGlow"><stop stop-color="#fffde1"/><stop offset=".16" stop-color="#87edff"/><stop offset=".5" stop-color="#376dff"/><stop offset="1" stop-color="#0a1b69"/></radialGradient>
 <filter id="shadow" x="-30%" y="-30%" width="160%" height="180%"><feDropShadow dx="0" dy="3" stdDeviation="3" flood-color="#000" flood-opacity=".75"/></filter>
 <filter id="glow" x="-80%" y="-80%" width="260%" height="260%"><feGaussianBlur stdDeviation="5"/></filter>
</defs>
 <rect x="4" y="4" width="92" height="92" rx="11" fill="#392714" stroke="url(#gold)" stroke-width="5" filter="url(#shadow)"/>
 <rect x="10" y="10" width="80" height="80" rx="8" fill="#1b2632" stroke="#7e5b2b" stroke-width="3"/>
 <circle cx="50" cy="50" r="30" fill="#0c1d2d" stroke="url(#gold)" stroke-width="5"/>
 <circle cx="50" cy="50" r="20" fill="none" stroke="#f4cf70" stroke-width="3"/>
 <ellipse cx="50" cy="50" rx="31" ry="12" fill="none" stroke="#b7792b" stroke-width="2" transform="rotate(-25 50 50)"/>
 <path d="M50 19l7 22 22 9-22 9-7 22-7-22-22-9 22-9Z" fill="none" stroke="#f8d97f" stroke-width="5"/>
 <circle cx="50" cy="50" r="7" fill="#c98c30" stroke="#fff0a0" stroke-width="2"/>
 <g fill="#ffe08a"><circle cx="15" cy="15" r="3"/><circle cx="85" cy="15" r="3"/><circle cx="15" cy="85" r="3"/><circle cx="85" cy="85" r="3"/></g>
 </svg>